<svg xmlns="http://www.w3.org/2000/svg" viewBox="0 0 143 163" width="143" height="163">
	<defs>
		<clipPath clipPathUnits="userSpaceOnUse" id="cp1">
			<path d="M-123 -205L1797 -205L1797 2464L-123 2464Z" />
		</clipPath>
	</defs>
	<style>
		tspan { white-space:pre }
		.shp0 { fill: #3c89ff } 
	</style>
	<g id="Unova explorer - Blocks" clip-path="url(#cp1)">
		<g id="Group 30">
			<g id="Group 2">
				<path id="Path 1" fill-rule="evenodd" class="shp0" d="M139.52 39.13C141.05 40.02 142 41.66 142 43.43L142 119.16C142 120.94 141.05 122.58 139.52 123.47L73.93 161.33C73.16 161.78 72.3 162 71.44 162C70.59 162 69.73 161.78 68.96 161.33L3.37 123.47C1.84 122.58 0.89 120.94 0.89 119.16L0.89 43.43C0.89 41.66 1.84 40.02 3.37 39.13L68.96 1.26C70.5 0.38 72.39 0.38 73.93 1.26L139.52 39.13ZM15.8 43.43L71.44 75.56L127.09 43.43L71.44 11.3L15.8 43.43ZM132.06 116.3L132.06 52.04L73.93 85.6C73.16 86.04 72.3 86.27 71.44 86.27C70.59 86.27 69.73 86.04 68.96 85.6L10.83 52.04L10.83 116.3L66.48 148.42L66.48 126.02C66.48 123.27 68.7 121.05 71.44 121.05C74.19 121.05 76.41 123.27 76.41 126.02L76.41 148.42L132.06 116.3Z" />
				<path id="Path 2" class="shp0" d="M71.44 98.69C70.13 98.69 68.85 99.22 67.92 100.14C67 101.07 66.47 102.35 66.47 103.66C66.47 104.96 67 106.25 67.92 107.17C68.85 108.09 70.13 108.63 71.44 108.63C72.75 108.63 74.03 108.09 74.95 107.17C75.88 106.25 76.41 104.96 76.41 103.66C76.41 102.35 75.88 101.07 74.95 100.14C74.03 99.22 72.75 98.69 71.44 98.69L71.44 98.69Z" />
			</g>
		</g>
	</g>
</svg>