<svg xmlns="http://www.w3.org/2000/svg" viewBox="0 0 47 54" width="47" height="54">
	<defs>
		<clipPath clipPathUnits="userSpaceOnUse" id="cp1">
			<path d="M-160 -740L1760 -740L1760 1220L-160 1220Z" />
		</clipPath>
	</defs>
	<style>
		tspan { white-space:pre }
		.shp0 { fill: #213ab3 } 
	</style>
	<g id="Unova explorer - Home" clip-path="url(#cp1)">
		<g id="Group 12">
			<g id="Group 2">
				<path id="Path 1" fill-rule="evenodd" class="shp0" d="M45.68 13.29C46.19 13.58 46.5 14.12 46.5 14.71L46.5 39.65C46.5 40.23 46.19 40.77 45.68 41.07L24.08 53.54C23.83 53.68 23.54 53.76 23.26 53.76C22.98 53.76 22.7 53.68 22.44 53.54L0.84 41.07C0.34 40.77 0.02 40.23 0.02 39.65L0.02 14.71C0.02 14.12 0.34 13.58 0.84 13.29L22.44 0.82C22.95 0.52 23.57 0.52 24.08 0.82L45.68 13.29ZM4.93 14.71L23.26 25.29L41.59 14.71L23.26 4.12L4.93 14.71ZM43.23 38.71L43.23 17.54L24.08 28.6C23.83 28.74 23.54 28.81 23.26 28.81C22.98 28.81 22.7 28.74 22.44 28.6L3.3 17.54L3.3 38.71L21.63 49.29L21.63 41.91C21.63 41 22.36 40.27 23.26 40.27C24.17 40.27 24.9 41 24.9 41.91L24.9 49.29L43.23 38.71Z" />
				<path id="Path 2" class="shp0" d="M23.26 32.91C22.83 32.91 22.41 33.08 22.1 33.39C21.8 33.69 21.62 34.11 21.62 34.54C21.62 34.97 21.8 35.39 22.1 35.7C22.41 36 22.83 36.18 23.26 36.18C23.69 36.18 24.11 36 24.42 35.7C24.72 35.39 24.9 34.97 24.9 34.54C24.9 34.11 24.72 33.69 24.42 33.39C24.11 33.08 23.69 32.91 23.26 32.91L23.26 32.91Z" />
			</g>
		</g>
	</g>
</svg>