<?xml version="1.0" encoding="utf-8"?>
<!-- Generator: Adobe Illustrator 23.0.4, SVG Export Plug-In . SVG Version: 6.00 Build 0)  -->
<svg version="1.1" id="Laag_1" xmlns="http://www.w3.org/2000/svg" xmlns:xlink="http://www.w3.org/1999/xlink" x="0px" y="0px"
	 viewBox="0 0 391.24 391.15" style="enable-background:new 0 0 391.24 391.15;" xml:space="preserve">
<g>
	<path d="M350.33,251.31c11.8,6.49,22.91,12.68,34.1,18.71c3.76,2.03,6.86,4.43,6.81,9.1c-0.05,4.47-3.04,6.8-6.66,8.81
		c-60.76,33.7-121.51,67.43-182.2,101.27c-4.73,2.63-8.78,2.59-13.49-0.03c-60.46-33.71-120.99-67.3-181.5-100.91
		c-0.45-0.25-0.9-0.52-1.37-0.75c-3.53-1.73-5.91-4.37-5.92-8.45c-0.01-4.07,2.37-6.61,5.85-8.49c10.4-5.62,20.72-11.37,31.07-17.08
		c1.12-0.62,2.21-1.28,3.87-2.24c-1.56-0.92-2.72-1.64-3.9-2.3c-10.33-5.75-20.63-11.53-31.01-17.19c-3.46-1.89-5.88-4.39-5.88-8.47
		c-0.01-4.08,2.42-6.62,5.87-8.49c10.28-5.57,20.51-11.22,30.75-16.85c1.23-0.68,2.42-1.44,4.07-2.44
		c-4.75-2.67-9.11-5.14-13.47-7.58c-7.36-4.13-14.77-8.18-22.08-12.39c-7.03-4.05-6.99-11.31,0.08-15.25
		c11.67-6.5,23.4-12.89,35.67-19.63c-1.65-0.99-2.82-1.73-4.03-2.4c-10.33-5.75-20.63-11.53-31.01-17.19
		c-3.46-1.89-5.87-4.41-5.85-8.49c0.01-4.08,2.48-6.57,5.91-8.47C67.68,69.87,129.33,35.63,190.96,1.35
		c3.3-1.84,6.25-1.77,9.53,0.06c61.63,34.28,123.28,68.53,184.94,102.74c3.45,1.91,5.83,4.46,5.8,8.53
		c-0.03,4.07-2.49,6.56-5.94,8.44c-10.38,5.66-20.68,11.44-31.01,17.19c-1.11,0.62-2.18,1.32-3.67,2.22
		c1.35,0.85,2.34,1.56,3.41,2.15c10.23,5.65,20.45,11.34,30.74,16.87c3.68,1.98,6.52,4.43,6.47,8.9c-0.05,4.47-3,6.84-6.65,8.8
		c-9.95,5.35-19.81,10.87-29.7,16.33c-1.11,0.61-2.17,1.3-3.67,2.2c1.27,0.81,2.17,1.45,3.13,1.98
		c10.12,5.58,20.22,11.21,30.4,16.68c3.68,1.98,6.52,4.44,6.5,8.9c-0.02,4.27-2.72,6.7-6.28,8.63
		c-10.16,5.52-20.23,11.19-30.33,16.81C353.41,249.46,352.21,250.2,350.33,251.31z M365.27,112.65c-1.57-0.94-2.54-1.56-3.55-2.12
		c-54.4-30.41-108.82-60.79-163.18-91.28c-2.31-1.29-3.86-1.04-5.98,0.15C138.52,49.67,84.45,79.87,30.38,110.08
		c-1.34,0.75-2.64,1.54-4.23,2.47c1.23,0.76,2.08,1.33,2.97,1.82c54.15,30.22,108.32,60.41,162.41,90.75
		c3.2,1.79,5.45,1.55,8.46-0.14c35.29-19.8,70.65-39.48,105.99-59.2C325.59,134.84,345.18,123.88,365.27,112.65z M365.25,278.93
		c-9.74-5.49-19.2-10.64-28.45-16.14c-2.76-1.64-4.72-1.45-7.41,0.05c-42.01,23.47-84.13,46.73-126.07,70.31
		c-5.57,3.13-9.96,2.99-15.46-0.1c-42.07-23.63-84.29-46.97-126.42-70.48c-2.31-1.29-4.09-1.52-6.39-0.04
		c-3.49,2.24-7.22,4.11-10.84,6.16c-5.91,3.34-11.81,6.7-18.11,10.28c1.5,0.9,2.48,1.52,3.48,2.08
		c54.29,30.35,108.59,60.69,162.86,91.09c2.27,1.27,3.97,1.4,6.34,0.07c54.37-30.48,108.79-60.86,163.2-91.27
		C362.98,280.38,363.93,279.74,365.25,278.93z M26.21,223.29c1.35,0.82,2.31,1.44,3.31,2c54.17,30.21,108.35,60.4,162.46,90.7
		c2.75,1.54,4.69,1.51,7.42-0.02c44.93-25.18,89.93-50.24,134.9-75.33c10.17-5.67,20.33-11.37,30.9-17.28
		c-1.56-0.98-2.71-1.77-3.93-2.46c-8.03-4.54-16.15-8.91-24.05-13.65c-2.76-1.66-4.73-1.39-7.4,0.08
		c-42.67,23.66-85.44,47.16-128.07,70.88c-4.75,2.64-8.56,2.72-13.32,0.03c-42.4-23.94-84.91-47.65-127.36-71.49
		c-2.13-1.2-3.74-1.37-5.97-0.05c-8.39,4.95-16.93,9.64-25.4,14.44C28.6,221.76,27.55,222.46,26.21,223.29z M26.16,168.21
		c1.5,0.94,2.64,1.74,3.86,2.41c11.39,6.22,22.84,12.34,34.2,18.63c42.9,23.77,85.78,47.57,128.61,71.44
		c2.06,1.15,3.48,1.22,5.59,0.04c54.36-30.42,108.77-60.74,163.17-91.09c1.11-0.62,2.18-1.31,3.66-2.2
		c-9.64-5.46-18.93-10.6-28.08-15.98c-2.42-1.42-4.21-1.43-6.69-0.04c-42.87,23.93-85.8,47.74-128.69,71.63
		c-4.14,2.31-7.99,2.42-12.13,0.07c-10.4-5.88-20.88-11.63-31.32-17.43c-32.58-18.1-65.16-36.22-97.78-54.25
		c-1.28-0.71-3.42-1.34-4.45-0.76C46.17,156.29,36.38,162.17,26.16,168.21z"/>
</g>
</svg>
