<svg xmlns="http://www.w3.org/2000/svg" viewBox="0 0 158 163" width="158" height="163">
	<defs>
		<clipPath clipPathUnits="userSpaceOnUse" id="cp1">
			<path d="M-116 -205L1804 -205L1804 2464L-116 2464Z" />
		</clipPath>
	</defs>
	<style>
		tspan { white-space:pre }
		.shp0 { fill: #3c89ff } 
	</style>
	<g id="Unova explorer - Bundles" clip-path="url(#cp1)">
		<g id="Group 46">
			<g id="Group 45">
				<path id="Path 4" fill-rule="evenodd" class="shp0" d="M157.12 37.69C157.15 37.81 157.16 37.93 157.16 38.06L157.16 56.57C157.16 57.38 156.72 58.12 156.01 58.51L138.66 67.98L138.66 93.34L156.05 103.3L156.06 103.31L156.08 103.32C156.18 103.38 156.27 103.45 156.35 103.53C156.41 103.58 156.47 103.61 156.53 103.67C156.61 103.76 156.69 103.86 156.76 103.97C156.8 104.02 156.84 104.07 156.87 104.13C156.97 104.29 157.04 104.47 157.09 104.65C157.11 104.72 157.11 104.79 157.12 104.86C157.14 104.98 157.16 105.1 157.17 105.22L157.17 123.73C157.17 124.54 156.72 125.28 156.01 125.67L137.51 135.77C137.41 135.82 137.3 135.86 137.19 135.9C137.13 135.92 137.07 135.95 137.01 135.97C136.65 136.07 136.26 136.07 135.89 135.97C135.83 135.95 135.77 135.92 135.71 135.9C135.6 135.86 135.5 135.82 135.39 135.77L119.68 127.19L99.3 140.76L99.3 149.93C99.3 150.74 98.86 151.49 98.15 151.88L79.65 161.98C79.55 162.03 79.44 162.07 79.33 162.11C79.27 162.13 79.21 162.16 79.15 162.18C78.78 162.28 78.4 162.28 78.03 162.18C77.97 162.16 77.91 162.13 77.85 162.11C77.74 162.07 77.63 162.03 77.53 161.98L59.02 151.88C58.31 151.49 57.87 150.75 57.87 149.94L57.87 140.76L37.5 127.2L21.78 135.77C21.68 135.82 21.57 135.87 21.46 135.9C21.4 135.92 21.35 135.95 21.28 135.97C20.92 136.07 20.53 136.07 20.16 135.97C20.1 135.95 20.04 135.92 19.98 135.9C19.87 135.87 19.76 135.82 19.66 135.77L1.16 125.67C0.44 125.28 0 124.54 0 123.73L0 105.22C0 105.1 0.02 104.97 0.05 104.85C0.06 104.79 0.06 104.72 0.07 104.65C0.12 104.47 0.2 104.29 0.29 104.13C0.32 104.07 0.37 104.02 0.41 103.97C0.47 103.86 0.55 103.76 0.64 103.67C0.69 103.61 0.75 103.58 0.81 103.53C0.9 103.45 0.99 103.38 1.08 103.32L1.1 103.31L1.12 103.3L18.51 93.34L18.51 67.98L1.15 58.51C0.44 58.12 0 57.37 0 56.56L0 38.05C0 37.93 0.02 37.81 0.05 37.69C0.06 37.62 0.06 37.55 0.07 37.49C0.12 37.3 0.2 37.13 0.29 36.96C0.32 36.9 0.37 36.86 0.41 36.81C0.47 36.7 0.55 36.6 0.64 36.5C0.69 36.45 0.75 36.41 0.81 36.36C0.9 36.29 0.99 36.21 1.08 36.15L1.1 36.14L1.12 36.13L19.62 25.53C20.3 25.14 21.14 25.14 21.82 25.53L40.33 36.14L40.34 36.15L40.36 36.15C40.45 36.22 40.54 36.29 40.63 36.36C40.68 36.41 40.75 36.45 40.8 36.5C40.89 36.6 40.96 36.7 41.03 36.8C41.07 36.86 41.12 36.9 41.15 36.96C41.25 37.13 41.32 37.3 41.37 37.49C41.39 37.55 41.38 37.63 41.39 37.69C41.42 37.81 41.44 37.93 41.44 38.06L41.44 42.57L57.9 32.26C57.88 32.15 57.86 32.03 57.86 31.92L57.86 13.4C57.86 13.28 57.88 13.16 57.9 13.04C57.92 12.97 57.91 12.9 57.93 12.84C57.98 12.65 58.05 12.47 58.15 12.31C58.19 12.24 58.24 12.18 58.29 12.12C58.35 12.03 58.42 11.94 58.49 11.85C58.56 11.79 58.63 11.74 58.7 11.69C58.78 11.62 58.86 11.56 58.94 11.5L58.96 11.5L58.97 11.49L77.48 0.89C78.17 0.5 79 0.5 79.68 0.89L98.2 11.49L98.21 11.51L98.22 11.51C98.3 11.56 98.38 11.63 98.46 11.69C98.53 11.75 98.6 11.8 98.67 11.86C98.74 11.94 98.81 12.03 98.87 12.13C98.92 12.19 98.97 12.25 99.01 12.32C99.11 12.48 99.18 12.66 99.23 12.84C99.25 12.91 99.25 12.98 99.26 13.05C99.28 13.17 99.3 13.29 99.3 13.41L99.3 31.92C99.3 32.03 99.28 32.14 99.26 32.26L115.72 42.57L115.72 38.05C115.73 37.93 115.75 37.81 115.77 37.69C115.78 37.62 115.78 37.55 115.8 37.49C115.85 37.3 115.92 37.13 116.01 36.96C116.05 36.9 116.09 36.86 116.13 36.81C116.2 36.7 116.27 36.6 116.36 36.5C116.41 36.45 116.48 36.41 116.54 36.36C116.62 36.29 116.71 36.21 116.81 36.15L116.82 36.14L116.84 36.13L135.35 25.53C136.03 25.14 136.87 25.14 137.55 25.53L156.05 36.14L156.07 36.15L156.08 36.15C156.18 36.22 156.27 36.29 156.35 36.36C156.41 36.41 156.48 36.45 156.53 36.5C156.61 36.6 156.69 36.7 156.76 36.8C156.8 36.86 156.84 36.9 156.88 36.96C156.97 37.13 157.04 37.3 157.09 37.49C157.11 37.55 157.11 37.63 157.12 37.69ZM92.55 131.38L78.58 123.38L64.61 131.38L65.18 131.69L78.58 139.01L91.99 131.69L92.55 131.38ZM37.01 41.79L22.94 49.47L22.94 62.93L37.01 55.25L37.01 41.79ZM6.75 105.17L7.32 105.48L20.72 112.8L34.12 105.48L34.69 105.17L20.72 97.17L6.75 105.17ZM57.86 89.31L57.86 73.15L37.61 59.97L22.94 67.98L22.94 93.34L39.04 102.56L57.86 89.31ZM76.37 38.29L76.37 24.83L62.29 17.14L62.29 30.6L76.37 38.29ZM94.88 17.15L80.8 24.83L80.8 38.29L94.88 30.6L94.88 17.15ZM64.61 71.91L65.18 72.22L78.58 79.53L91.99 72.22L92.55 71.91L78.58 63.91L64.61 71.91ZM62.29 89.15L76.37 96.83L76.37 83.37L62.29 75.69L62.29 89.15ZM80.8 96.83L94.88 89.15L94.88 75.69L80.8 83.37L80.8 96.83ZM99.3 89.31L118.13 102.56L134.23 93.34L134.23 67.98L119.56 59.97L99.3 73.15L99.3 89.31ZM120.15 41.79L120.15 55.25L134.23 62.93L134.23 49.47L120.15 41.79ZM134.23 130.1L134.23 116.64L120.15 108.95L120.15 122.41L134.23 130.1ZM150.41 105.17L136.45 97.17L122.48 105.17L123.04 105.48L136.45 112.8L149.85 105.48L150.41 105.17ZM122.48 38.01L123.04 38.32L136.45 45.63L149.85 38.32L150.42 38.01L136.45 30.01L122.48 38.01ZM115.8 57.13C115.75 56.94 115.72 56.75 115.72 56.56L115.72 47.79L95.65 35.22L80.8 43.34L80.8 60.07L97.02 69.36L115.8 57.13ZM64.62 13.37L77.97 20.66L78.58 20.99L79.2 20.66L92.55 13.37L78.58 5.37L64.62 13.37ZM41.44 47.79L41.44 56.56C41.44 56.75 41.41 56.94 41.37 57.13L60.15 69.36L76.37 60.07L76.37 43.34L61.51 35.23L41.44 47.79ZM6.75 38.01L7.32 38.32L20.72 45.63L34.12 38.32L34.69 38.01L20.72 30.01L6.75 38.01ZM4.43 55.25L18.51 62.93L18.51 49.47L4.43 41.79L4.43 55.25ZM4.43 122.41L18.51 130.1L18.51 116.64L4.43 108.95L4.43 122.41ZM22.94 130.1L37.02 122.41L37.02 108.95L22.94 116.64L22.94 130.1ZM57.85 135.44L57.85 131.43C57.86 131.31 57.88 131.18 57.9 131.06C57.91 131 57.91 130.93 57.93 130.86C57.98 130.68 58.05 130.5 58.15 130.33C58.18 130.28 58.23 130.24 58.26 130.18C58.33 130.07 58.41 129.97 58.49 129.88C58.54 129.82 58.61 129.79 58.67 129.74C58.75 129.66 58.84 129.59 58.94 129.52L58.96 129.52L58.97 129.51L76.37 119.55L76.37 101.88L60.23 93.06L41.45 106.29L41.45 123.73C41.44 123.96 41.4 124.2 41.32 124.42L57.85 135.44ZM62.29 148.62L76.37 156.31L76.37 142.85L62.29 135.16L62.29 148.62ZM94.88 148.62L94.88 135.16L80.8 142.85L80.8 156.31L94.88 148.62ZM99.31 135.44L115.85 124.42C115.77 124.2 115.73 123.96 115.72 123.73L115.72 106.29L96.94 93.06L80.8 101.88L80.8 119.55L98.19 129.51L98.2 129.52L98.22 129.52C98.32 129.59 98.41 129.66 98.49 129.74C98.55 129.79 98.61 129.82 98.66 129.88C98.75 129.97 98.83 130.07 98.9 130.18C98.93 130.23 98.98 130.28 99.01 130.33C99.11 130.5 99.18 130.68 99.23 130.86C99.25 130.93 99.25 131 99.26 131.07C99.28 131.19 99.3 131.31 99.3 131.43L99.31 135.44ZM152.74 122.41L152.74 108.95L138.66 116.64L138.66 130.1L152.74 122.41ZM152.74 55.25L152.74 41.79L138.66 49.47L138.66 62.93L152.74 55.25Z" />
			</g>
		</g>
	</g>
</svg>