<svg xmlns="http://www.w3.org/2000/svg" viewBox="0 0 64 55" width="64" height="55">
	<defs>
		<clipPath clipPathUnits="userSpaceOnUse" id="cp1">
			<path d="M-311 -764L1609 -764L1609 1863L-311 1863Z" />
		</clipPath>
	</defs>
	<style>
		tspan { white-space:pre }
		.shp0 { fill: #213ab3 } 
	</style>
	<g id="Unova explorer - Bundle detail - Event" clip-path="url(#cp1)">
		<g id="Group 128">
			<path id="Path 6" fill-rule="evenodd" class="shp0" d="M63.67 8.62L63.67 24.48L49.93 32.4L43.74 28.84L28.33 37.73L28.33 46.07L14.59 54L0.85 46.07L0.85 30.22L14.59 22.29L20.76 25.85L36.18 16.94L36.18 8.62L49.93 0.69L63.67 8.62ZM13.61 38.71L2.81 32.48L2.81 44.94L13.61 51.17L13.61 38.71ZM14.59 37.01L25.39 30.78L14.59 24.55L3.79 30.78L14.59 37.01ZM26.37 32.48L15.57 38.71L15.57 51.17L26.37 44.94L26.37 32.48ZM41.78 27.7L36.18 24.48L36.18 19.21L22.72 26.98L28.33 30.22L28.33 35.46L41.78 27.7ZM48.94 17.12L38.15 10.89L38.15 15.81L39.26 15.17C39.73 14.9 40.33 15.06 40.6 15.53C40.87 16 40.71 16.6 40.24 16.87L38.15 18.08L38.15 23.34L43.74 26.57L45.64 25.48C46.11 25.21 46.71 25.37 46.98 25.84C47.25 26.31 47.09 26.91 46.62 27.18L45.7 27.71L48.94 29.57L48.94 17.12ZM49.93 15.42L60.72 9.19L49.93 2.96L39.13 9.19L49.93 15.42ZM61.7 10.89L50.91 17.12L50.91 29.57L61.7 23.34L61.7 10.89Z" />
			<path id="Path 7" class="shp0" d="M35.56 38.77L41.71 35.22C42.18 34.94 42.78 35.11 43.05 35.58L43.05 35.58C43.32 36.04 43.16 36.65 42.69 36.92L36.54 40.47C36.07 40.74 35.47 40.58 35.2 40.11L35.2 40.11C34.93 39.64 35.09 39.04 35.56 38.77Z" />
			<path id="Path 8" class="shp0" d="M21.82 17.78L27.97 14.22C28.44 13.95 29.04 14.11 29.31 14.58L29.31 14.58C29.58 15.05 29.42 15.65 28.95 15.92L22.8 19.48C22.33 19.75 21.73 19.59 21.46 19.12L21.46 19.12C21.19 18.65 21.35 18.05 21.82 17.78Z" />
		</g>
	</g>
</svg>