<svg xmlns="http://www.w3.org/2000/svg" viewBox="0 0 19 22" width="19" height="22">
	<defs>
		<clipPath clipPathUnits="userSpaceOnUse" id="cp1">
			<path d="M-1427 -511L493 -511L493 1449L-1427 1449Z" />
		</clipPath>
	</defs>
	<style>
		tspan { white-space:pre }
		.shp0 { fill: #333333 } 
	</style>
	<g id="Unova explorer - Home" clip-path="url(#cp1)">
		<g id="Group 7">
			<g id="Group 2">
				<path id="Path 1" fill-rule="evenodd" class="shp0" d="M17.92 5.81C18.12 5.93 18.24 6.14 18.24 6.36L18.24 16C18.24 16.22 18.12 16.43 17.92 16.54L9.58 21.36C9.48 21.42 9.37 21.44 9.26 21.44C9.15 21.44 9.04 21.42 8.95 21.36L0.6 16.54C0.41 16.43 0.29 16.22 0.29 16L0.29 6.36C0.29 6.14 0.41 5.93 0.6 5.81L8.95 1C9.14 0.88 9.38 0.88 9.58 1L17.92 5.81ZM2.18 6.36L9.26 10.45L16.34 6.36L9.26 2.27L2.18 6.36ZM16.97 15.63L16.97 7.46L9.58 11.73C9.48 11.78 9.37 11.81 9.26 11.81C9.15 11.81 9.04 11.78 8.95 11.73L1.55 7.46L1.55 15.63L8.63 19.72L8.63 16.87C8.63 16.52 8.91 16.23 9.26 16.23C9.61 16.23 9.89 16.52 9.89 16.87L9.89 19.72L16.97 15.63Z" />
				<path id="Path 2" class="shp0" d="M9.26 13.39C9.09 13.39 8.93 13.46 8.81 13.58C8.7 13.69 8.63 13.86 8.63 14.02C8.63 14.19 8.7 14.35 8.81 14.47C8.93 14.59 9.09 14.65 9.26 14.65C9.43 14.65 9.59 14.59 9.71 14.47C9.83 14.35 9.89 14.19 9.89 14.02C9.89 13.86 9.83 13.69 9.71 13.58C9.59 13.46 9.43 13.39 9.26 13.39L9.26 13.39Z" />
			</g>
		</g>
	</g>
</svg>