<svg xmlns="http://www.w3.org/2000/svg" width="34" height="34" viewBox="0 0 34 34" fill="none" class="injected-svg" data-src="/static/media/bytecode.cb22d8b1.svg" xmlns:xlink="http://www.w3.org/1999/xlink">
<path d="M32 13C32 13.5523 32.4477 14 33 14C33.5523 14 34 13.5523 34 13H32ZM34 21C34 20.4477 33.5523 20 33 20C32.4477 20 32 20.4477 32 21H34ZM0 13C0 13.5523 0.447715 14 1 14C1.55228 14 2 13.5523 2 13H0ZM2 21C2 20.4477 1.55228 20 1 20C0.447715 20 0 20.4477 0 21H2ZM27 17L27.7071 17.7071C28.0976 17.3166 28.0976 16.6834 27.7071 16.2929L27 17ZM22.2929 20.2929C21.9024 20.6834 21.9024 21.3166 22.2929 21.7071C22.6834 22.0976 23.3166 22.0976 23.7071 21.7071L22.2929 20.2929ZM23.7071 12.2929C23.3166 11.9024 22.6834 11.9024 22.2929 12.2929C21.9024 12.6834 21.9024 13.3166 22.2929 13.7071L23.7071 12.2929ZM7 17L6.29289 16.2929C5.90237 16.6834 5.90237 17.3166 6.29289 17.7071L7 17ZM10.2929 21.7071C10.6834 22.0976 11.3166 22.0976 11.7071 21.7071C12.0976 21.3166 12.0976 20.6834 11.7071 20.2929L10.2929 21.7071ZM11.7071 13.7071C12.0976 13.3166 12.0976 12.6834 11.7071 12.2929C11.3166 11.9024 10.6834 11.9024 10.2929 12.2929L11.7071 13.7071ZM16 7C16 7.55228 16.4477 8 17 8C17.5523 8 18 7.55228 18 7H16ZM18 1.5C18 0.947715 17.5523 0.5 17 0.5C16.4477 0.5 16 0.947715 16 1.5H18ZM16 32.5C16 33.0523 16.4477 33.5 17 33.5C17.5523 33.5 18 33.0523 18 32.5H16ZM18 27C18 26.4477 17.5523 26 17 26C16.4477 26 16 26.4477 16 27H18ZM15 16C14.4477 16 14 16.4477 14 17C14 17.5523 14.4477 18 15 18V16ZM19 18C19.5523 18 20 17.5523 20 17C20 16.4477 19.5523 16 19 16V18ZM3 8H31V6H3V8ZM31 26H3V28H31V26ZM3 26C2.44772 26 2 25.5523 2 25H0C0 26.6569 1.34315 28 3 28V26ZM32 25C32 25.5523 31.5523 26 31 26V28C32.6569 28 34 26.6569 34 25H32ZM31 8C31.5523 8 32 8.44772 32 9H34C34 7.34315 32.6569 6 31 6V8ZM3 6C1.34315 6 0 7.34315 0 9H2C2 8.44772 2.44772 8 3 8V6ZM32 9V13H34V9H32ZM32 21V25H34V21H32ZM2 13V9H0V13H2ZM2 25V21H0V25H2ZM26.2929 16.2929L22.2929 20.2929L23.7071 21.7071L27.7071 17.7071L26.2929 16.2929ZM22.2929 13.7071L26.2929 17.7071L27.7071 16.2929L23.7071 12.2929L22.2929 13.7071ZM6.29289 17.7071L10.2929 21.7071L11.7071 20.2929L7.70711 16.2929L6.29289 17.7071ZM10.2929 12.2929L6.29289 16.2929L7.70711 17.7071L11.7071 13.7071L10.2929 12.2929ZM18 7V1.5H16V7H18ZM18 32.5V27H16V32.5H18ZM15 18H19V16H15V18Z" fill="#9198BB"></path>
</svg>