<svg xmlns="http://www.w3.org/2000/svg" width="34" height="22" viewBox="0 0 34 22" fill="none" class="injected-svg" data-src="/static/media/transaction_bundle_upload_gradient.6a248a3b.svg" xmlns:xlink="http://www.w3.org/1999/xlink">
<path d="M32 7C32 7.55228 32.4477 8 33 8C33.5523 8 34 7.55228 34 7H32ZM34 15C34 14.4477 33.5523 14 33 14C32.4477 14 32 14.4477 32 15H34ZM0 7C0 7.55228 0.447715 8 1 8C1.55228 8 2 7.55228 2 7H0ZM2 15C2 14.4477 1.55228 14 1 14C0.447715 14 0 14.4477 0 15H2ZM25 10L25.5547 9.16795L25 8.79815L24.4453 9.16795L25 10ZM24 16C24 16.5523 24.4477 17 25 17C25.5523 17 26 16.5523 26 16H24ZM27.4453 12.8321C27.9048 13.1384 28.5257 13.0142 28.8321 12.5547C29.1384 12.0952 29.0142 11.4743 28.5547 11.1679L27.4453 12.8321ZM21.4453 11.1679C20.9858 11.4743 20.8616 12.0952 21.1679 12.5547C21.4743 13.0142 22.0952 13.1384 22.5547 12.8321L21.4453 11.1679ZM3 2H31V0H3V2ZM31 20H3V22H31V20ZM3 20C2.44772 20 2 19.5523 2 19H0C0 20.6569 1.34315 22 3 22V20ZM32 19C32 19.5523 31.5523 20 31 20V22C32.6569 22 34 20.6569 34 19H32ZM31 2C31.5523 2 32 2.44772 32 3H34C34 1.34315 32.6569 0 31 0V2ZM3 0C1.34315 0 0 1.34315 0 3H2C2 2.44772 2.44772 2 3 2V0ZM32 3V7H34V3H32ZM32 15V19H34V15H32ZM2 7V3H0V7H2ZM2 19V15H0V19H2ZM33 4H1V6H33V4ZM24 10V16H26V10H24ZM28.5547 11.1679L25.5547 9.16795L24.4453 10.8321L27.4453 12.8321L28.5547 11.1679ZM24.4453 9.16795L21.4453 11.1679L22.5547 12.8321L25.5547 10.8321L24.4453 9.16795Z" fill="url(#paint0_linear-105-544)"></path>
<defs>
<linearGradient id="paint0_linear-105-544" x1="1" y1="11" x2="33" y2="11" gradientUnits="userSpaceOnUse">
<stop stop-color="#00B7F9"></stop>
<stop offset="0.480663" stop-color="#0042BA"></stop>
<stop offset="1" stop-color="#5B1EC0"></stop>
</linearGradient>
</defs>
</svg>