<svg xmlns="http://www.w3.org/2000/svg" width="34" height="22" viewBox="0 0 34 22" fill="none" class="injected-svg" data-src="/static/media/transaction_challenge_gradient.afe28429.svg" xmlns:xlink="http://www.w3.org/1999/xlink">
<path d="M32 7C32 7.55228 32.4477 8 33 8C33.5523 8 34 7.55228 34 7H32ZM34 15C34 14.4477 33.5523 14 33 14C32.4477 14 32 14.4477 32 15H34ZM0 7C0 7.55228 0.447715 8 1 8C1.55228 8 2 7.55228 2 7H0ZM2 15C2 14.4477 1.55228 14 1 14C0.447715 14 0 14.4477 0 15H2ZM33 6C33.5523 6 34 5.55228 34 5C34 4.44772 33.5523 4 33 4V6ZM1 4C0.447715 4 0 4.44772 0 5C0 5.55228 0.447715 6 1 6V4ZM27 10H28C28 9.67856 27.8455 9.37671 27.5847 9.18876C27.3239 9.00081 26.9887 8.94967 26.6838 9.05132L27 10ZM21 12L20.6838 11.0513C20.2754 11.1874 20 11.5696 20 12C20 12.4304 20.2754 12.8126 20.6838 12.9487L21 12ZM26 16C26 16.5523 26.4477 17 27 17C27.5523 17 28 16.5523 28 16H26ZM3 2H31V0H3V2ZM31 20H3V22H31V20ZM3 20C2.44772 20 2 19.5523 2 19H0C0 20.6569 1.34315 22 3 22V20ZM32 19C32 19.5523 31.5523 20 31 20V22C32.6569 22 34 20.6569 34 19H32ZM31 2C31.5523 2 32 2.44772 32 3H34C34 1.34315 32.6569 0 31 0V2ZM3 0C1.34315 0 0 1.34315 0 3H2C2 2.44772 2.44772 2 3 2V0ZM32 3V7H34V3H32ZM32 15V19H34V15H32ZM2 7V3H0V7H2ZM2 19V15H0V19H2ZM33 4H1V6H33V4ZM26.6838 9.05132L20.6838 11.0513L21.3162 12.9487L27.3162 10.9487L26.6838 9.05132ZM28 16V14H26V16H28ZM28 14V10H26V14H28ZM20.6838 12.9487L26.6838 14.9487L27.3162 13.0513L21.3162 11.0513L20.6838 12.9487Z" fill="url(#paint0_linear-105-482)"></path>
<defs>
<linearGradient id="paint0_linear-105-482" x1="1" y1="11" x2="33" y2="11" gradientUnits="userSpaceOnUse">
<stop stop-color="#00B7F9"></stop>
<stop offset="0.480663" stop-color="#0042BA"></stop>
<stop offset="1" stop-color="#5B1EC0"></stop>
</linearGradient>
</defs>
</svg>