<svg xmlns="http://www.w3.org/2000/svg" width="22" height="18" viewBox="0 0 22 18" fill="none" class="injected-svg" data-src="/static/media/transaction_sent.b4af8f43.svg" xmlns:xlink="http://www.w3.org/1999/xlink">
<path d="M21.5999 6.60005C21.5999 6.04776 21.1522 5.60005 20.5999 5.60005C20.0476 5.60005 19.5999 6.04776 19.5999 6.60005H21.5999ZM2.3999 6.60005C2.3999 6.04776 1.95219 5.60005 1.3999 5.60005C0.847618 5.60005 0.399902 6.04776 0.399902 6.60005H2.3999ZM9.9999 9.00005C9.9999 9.55233 10.4476 10 10.9999 10C11.5522 10 11.9999 9.55233 11.9999 9.00005H9.9999ZM10.9999 1.80005L11.707 1.09294C11.5195 0.905406 11.2651 0.800049 10.9999 0.800049C10.7347 0.800049 10.4803 0.905406 10.2928 1.09294L10.9999 1.80005ZM13.2928 5.50716C13.6833 5.89768 14.3165 5.89768 14.707 5.50716C15.0975 5.11663 15.0975 4.48347 14.707 4.09294L13.2928 5.50716ZM7.2928 4.09294C6.90227 4.48347 6.90227 5.11663 7.2928 5.50716C7.68332 5.89768 8.31648 5.89768 8.70701 5.50716L7.2928 4.09294ZM19.5999 6.60005C19.5999 11.3497 15.7495 15.2 10.9999 15.2V17.2C16.8541 17.2 21.5999 12.4543 21.5999 6.60005H19.5999ZM10.9999 15.2C6.25025 15.2 2.3999 11.3497 2.3999 6.60005H0.399902C0.399902 12.4543 5.14568 17.2 10.9999 17.2V15.2ZM11.9999 9.00005V1.80005H9.9999V9.00005H11.9999ZM14.707 4.09294L11.707 1.09294L10.2928 2.50716L13.2928 5.50716L14.707 4.09294ZM10.2928 1.09294L7.2928 4.09294L8.70701 5.50716L11.707 2.50716L10.2928 1.09294Z" fill="#333333"></path>
</svg>