<svg xmlns="http://www.w3.org/2000/svg" width="40" height="40" viewBox="0 0 40 40" fill="none" class="injected-svg" data-src="/static/media/blocks.d31f2100.svg" xmlns:xlink="http://www.w3.org/1999/xlink">
<path d="M6 17H10V15H6V17ZM11 18V22H13V18H11ZM10 23H6V25H10V23ZM5 22V18H3V22H5ZM6 23C5.44772 23 5 22.5523 5 22H3C3 23.6569 4.34315 25 6 25V23ZM11 22C11 22.5523 10.5523 23 10 23V25C11.6569 25 13 23.6569 13 22H11ZM10 17C10.5523 17 11 17.4477 11 18H13C13 16.3431 11.6569 15 10 15V17ZM6 15C4.34315 15 3 16.3431 3 18H5C5 17.4477 5.44772 17 6 17V15ZM18 17H22V15H18V17ZM23 18V22H25V18H23ZM22 23H18V25H22V23ZM17 22V18H15V22H17ZM18 23C17.4477 23 17 22.5523 17 22H15C15 23.6569 16.3431 25 18 25V23ZM23 22C23 22.5523 22.5523 23 22 23V25C23.6569 25 25 23.6569 25 22H23ZM22 17C22.5523 17 23 17.4477 23 18H25C25 16.3431 23.6569 15 22 15V17ZM18 15C16.3431 15 15 16.3431 15 18H17C17 17.4477 17.4477 17 18 17V15ZM30 17H34V15H30V17ZM35 18V22H37V18H35ZM34 23H30V25H34V23ZM29 22V18H27V22H29ZM30 23C29.4477 23 29 22.5523 29 22H27C27 23.6569 28.3431 25 30 25V23ZM35 22C35 22.5523 34.5523 23 34 23V25C35.6569 25 37 23.6569 37 22H35ZM34 17C34.5523 17 35 17.4477 35 18H37C37 16.3431 35.6569 15 34 15V17ZM30 15C28.3431 15 27 16.3431 27 18H29C29 17.4477 29.4477 17 30 17V15ZM12 21H16V19H12V21ZM24 21H28V19H24V21Z" fill="#9198BB"></path>
</svg>