<svg xmlns="http://www.w3.org/2000/svg" viewBox="0 0 44 45" width="44" height="45">
	<defs>
		<clipPath clipPathUnits="userSpaceOnUse" id="cp1">
			<path d="M-161 -701L1759 -701L1759 376L-161 376Z" />
		</clipPath>
	</defs>
	<style>
		tspan { white-space:pre }
		.shp0 { fill: #213ab3 } 
	</style>
	<g id="Unova explorer - Block detail" clip-path="url(#cp1)">
		<g id="Group 150">
			<path id="Path 11" class="shp0" d="M23.83 11C23.83 12.01 23.01 12.83 22 12.83C20.99 12.83 20.17 12.01 20.17 11C20.17 9.99 20.99 9.17 22 9.17C23.01 9.17 23.83 9.99 23.83 11L23.83 11Z" />
			<path id="Path 12" class="shp0" d="M22 34.83C21.24 34.83 20.62 34.22 20.62 33.46L20.62 19.25L18.79 19.25C18.03 19.25 17.42 18.63 17.42 17.88C17.42 17.12 18.03 16.5 18.79 16.5L22 16.5C22.76 16.5 23.37 17.12 23.37 17.88L23.37 33.46C23.37 34.22 22.76 34.83 22 34.83L22 34.83Z" />
			<path id="Path 13" fill-rule="evenodd" class="shp0" d="M0 22C0 9.87 9.87 0 22 0C34.13 0 44 9.87 44 22C44 34.13 34.13 44 22 44C9.87 44 0 34.13 0 22ZM2.75 22C2.75 32.61 11.38 41.25 22 41.25C32.61 41.25 41.25 32.61 41.25 22C41.25 11.39 32.61 2.75 22 2.75C11.38 2.75 2.75 11.39 2.75 22Z" />
			<path id="Path 14" class="shp0" d="M26.12 34.83L17.87 34.83C17.12 34.83 16.5 34.22 16.5 33.46C16.5 32.7 17.12 32.08 17.87 32.08L26.12 32.08C26.88 32.08 27.5 32.7 27.5 33.46C27.5 34.22 26.88 34.83 26.12 34.83L26.12 34.83Z" />
		</g>
	</g>
</svg>