<svg xmlns="http://www.w3.org/2000/svg" viewBox="0 0 45 38" width="45" height="38">
	<defs>
		<clipPath clipPathUnits="userSpaceOnUse" id="cp1">
			<path d="M-161 -954L1759 -954L1759 123L-161 123Z" />
		</clipPath>
	</defs>
	<style>
		tspan { white-space:pre }
		.shp0 { fill: #213ab3 } 
	</style>
	<g id="Unova explorer - Block detail" clip-path="url(#cp1)">
		<g id="Group 149">
			<g id="Group 148">
				<path id="Path 9" class="shp0" d="M30.94 23.5L14.06 23.5C13.29 23.5 12.66 22.87 12.66 22.09C12.66 21.32 13.29 20.69 14.06 20.69L30.94 20.69C31.71 20.69 32.34 21.32 32.34 22.09C32.34 22.87 31.71 23.5 30.94 23.5L30.94 23.5Z" />
				<path id="Path 10" fill-rule="evenodd" class="shp0" d="M4.22 37.56C1.89 37.56 0 35.67 0 33.34L0 5.22C0 2.89 1.89 1 4.22 1L16.31 1C17.04 1 17.74 1.28 18.26 1.78L23.06 6.39C23.13 6.46 23.2 6.54 23.25 6.62L40.78 6.62C43.11 6.62 45 8.51 45 10.84L45 33.34C45 35.67 43.11 37.56 40.78 37.56L4.22 37.56ZM4.22 3.81C3.44 3.81 2.81 4.44 2.81 5.22L2.81 33.34C2.81 34.12 3.44 34.75 4.22 34.75L40.78 34.75C41.56 34.75 42.19 34.12 42.19 33.34L42.19 10.84C42.19 10.07 41.56 9.44 40.78 9.44L23.25 9.44C22.37 9.44 21.55 9.03 21.02 8.33L16.31 3.81L4.22 3.81Z" />
			</g>
		</g>
	</g>
</svg>