<svg xmlns="http://www.w3.org/2000/svg" viewBox="0 0 53 54" width="53" height="54">
	<defs>
		<clipPath clipPathUnits="userSpaceOnUse" id="cp1">
			<path d="M-157 -693L1763 -693L1763 1976L-157 1976Z" />
		</clipPath>
	</defs>
	<style>
		tspan { white-space:pre }
		.shp0 { fill: #213ab3 } 
	</style>
	<g id="Unova explorer - Bundles" clip-path="url(#cp1)">
		<g id="Group 51">
			<g id="Group 45">
				<path id="Path 4" fill-rule="evenodd" class="shp0" d="M52.17 12.71C52.18 12.75 52.18 12.79 52.19 12.83L52.19 18.93C52.19 19.2 52.04 19.44 51.81 19.57L46.09 22.69L46.09 31.05L51.82 34.33L51.82 34.33L51.83 34.34C51.86 34.36 51.89 34.38 51.92 34.41C51.94 34.42 51.96 34.43 51.98 34.45C52 34.48 52.03 34.52 52.05 34.55C52.06 34.57 52.08 34.58 52.09 34.6C52.12 34.66 52.14 34.72 52.16 34.78C52.17 34.8 52.17 34.82 52.17 34.84C52.18 34.88 52.18 34.92 52.19 34.96L52.19 41.06C52.19 41.33 52.04 41.58 51.81 41.7L45.71 45.03C45.67 45.05 45.64 45.06 45.6 45.07C45.58 45.08 45.56 45.09 45.54 45.1C45.42 45.13 45.3 45.13 45.17 45.1C45.15 45.09 45.14 45.08 45.12 45.07C45.08 45.06 45.04 45.05 45.01 45.03L39.83 42.2L33.12 46.67L33.12 49.7C33.12 49.97 32.97 50.21 32.74 50.34L26.64 53.67C26.61 53.69 26.57 53.7 26.53 53.71C26.51 53.72 26.5 53.73 26.48 53.73C26.35 53.77 26.23 53.77 26.1 53.73C26.08 53.73 26.07 53.72 26.05 53.71C26.01 53.7 25.97 53.69 25.94 53.67L19.84 50.34C19.61 50.21 19.46 49.97 19.46 49.7L19.46 46.68L12.75 42.21L7.57 45.03C7.53 45.05 7.5 45.06 7.46 45.07C7.44 45.08 7.42 45.09 7.4 45.1C7.28 45.13 7.16 45.13 7.03 45.1C7.01 45.09 7 45.08 6.98 45.07C6.94 45.06 6.9 45.05 6.87 45.03L0.77 41.7C0.54 41.58 0.39 41.33 0.39 41.06L0.39 34.96C0.39 34.92 0.4 34.88 0.41 34.84C0.41 34.82 0.41 34.8 0.41 34.78C0.43 34.72 0.45 34.66 0.49 34.6C0.5 34.58 0.51 34.57 0.52 34.55C0.55 34.52 0.57 34.48 0.6 34.45C0.62 34.43 0.64 34.42 0.66 34.41C0.69 34.38 0.72 34.36 0.75 34.34L0.75 34.33L0.76 34.33L6.49 31.05L6.49 22.69L0.77 19.57C0.54 19.44 0.39 19.19 0.39 18.93L0.39 12.83C0.39 12.79 0.4 12.75 0.41 12.71C0.41 12.69 0.41 12.66 0.41 12.64C0.43 12.58 0.45 12.52 0.49 12.47C0.5 12.45 0.51 12.43 0.52 12.42C0.55 12.38 0.57 12.35 0.6 12.32C0.62 12.3 0.64 12.29 0.66 12.27C0.69 12.25 0.72 12.22 0.75 12.2L0.75 12.2L0.76 12.2L6.86 8.7C7.08 8.57 7.36 8.57 7.58 8.7L13.68 12.2L13.69 12.2L13.69 12.2C13.72 12.22 13.75 12.25 13.78 12.27C13.8 12.29 13.82 12.3 13.84 12.32C13.87 12.35 13.89 12.38 13.91 12.42C13.93 12.43 13.94 12.45 13.95 12.47C13.98 12.52 14.01 12.58 14.02 12.64C14.03 12.66 14.03 12.69 14.03 12.71C14.04 12.75 14.05 12.79 14.05 12.83L14.05 14.32L19.47 10.92C19.46 10.88 19.46 10.84 19.46 10.81L19.46 4.7C19.46 4.66 19.46 4.62 19.47 4.58C19.48 4.56 19.48 4.54 19.48 4.52C19.5 4.46 19.52 4.4 19.55 4.34C19.57 4.32 19.58 4.3 19.6 4.28C19.62 4.25 19.64 4.22 19.67 4.19C19.69 4.17 19.71 4.16 19.74 4.14C19.76 4.12 19.79 4.1 19.82 4.08L19.82 4.08L19.82 4.07L25.93 0.58C26.15 0.45 26.43 0.45 26.65 0.58L32.75 4.07L32.75 4.08L32.76 4.08C32.79 4.1 32.81 4.12 32.84 4.14C32.86 4.16 32.88 4.18 32.91 4.2C32.93 4.22 32.95 4.25 32.97 4.28C32.99 4.3 33.01 4.32 33.02 4.35C33.05 4.4 33.08 4.46 33.09 4.52C33.1 4.54 33.1 4.57 33.1 4.59C33.11 4.63 33.11 4.67 33.12 4.71L33.12 10.81C33.11 10.84 33.11 10.88 33.1 10.92L38.53 14.32L38.53 12.83C38.53 12.79 38.53 12.75 38.54 12.71C38.55 12.69 38.55 12.66 38.55 12.64C38.57 12.58 38.59 12.52 38.62 12.47C38.63 12.45 38.65 12.43 38.66 12.42C38.68 12.38 38.71 12.35 38.74 12.32C38.75 12.3 38.78 12.29 38.8 12.27C38.82 12.25 38.85 12.22 38.88 12.2L38.89 12.2L38.9 12.2L45 8.7C45.22 8.57 45.5 8.57 45.72 8.7L51.82 12.2L51.82 12.2L51.83 12.2C51.86 12.22 51.89 12.25 51.92 12.27C51.94 12.29 51.96 12.3 51.98 12.32C52 12.35 52.03 12.38 52.05 12.42C52.06 12.43 52.08 12.45 52.09 12.47C52.12 12.52 52.14 12.58 52.16 12.64C52.17 12.66 52.17 12.69 52.17 12.71ZM30.89 43.58L26.29 40.95L21.68 43.59L21.87 43.69L26.29 46.1L30.71 43.69L30.89 43.58ZM12.59 14.06L7.95 16.59L7.95 21.03L12.59 18.5L12.59 14.06ZM2.62 34.95L2.8 35.05L7.22 37.46L11.64 35.05L11.82 34.95L7.22 32.31L2.62 34.95ZM19.46 29.72L19.46 24.4L12.78 20.05L7.95 22.69L7.95 31.05L13.26 34.09L19.46 29.72ZM25.56 12.91L25.56 8.47L20.92 5.94L20.92 10.37L25.56 12.91ZM31.66 5.94L27.02 8.47L27.02 12.91L31.66 10.37L31.66 5.94ZM21.68 23.98L21.87 24.09L26.29 26.5L30.71 24.09L30.89 23.98L26.29 21.35L21.68 23.98ZM20.92 29.67L25.56 32.2L25.56 27.76L20.92 25.23L20.92 29.67ZM27.02 32.2L31.66 29.67L31.66 25.23L27.02 27.76L27.02 32.2ZM33.12 29.72L39.32 34.09L44.63 31.05L44.63 22.69L39.79 20.05L33.12 24.4L33.12 29.72ZM39.99 14.06L39.99 18.5L44.63 21.03L44.63 16.59L39.99 14.06ZM44.63 43.16L44.63 38.73L39.99 36.19L39.99 40.63L44.63 43.16ZM49.96 34.95L45.36 32.31L40.75 34.95L40.94 35.05L45.36 37.46L49.77 35.05L49.96 34.95ZM40.75 12.81L40.94 12.92L45.36 15.33L49.77 12.92L49.96 12.81L45.36 10.18L40.75 12.81ZM38.55 19.12C38.54 19.05 38.53 18.99 38.53 18.93L38.53 16.04L31.91 11.9L27.02 14.57L27.02 20.08L32.36 23.14L38.55 19.12ZM21.68 4.69L26.09 7.1L26.29 7.21L26.49 7.1L30.89 4.69L26.29 2.06L21.68 4.69ZM14.05 16.04L14.05 18.93C14.05 18.99 14.04 19.05 14.02 19.12L20.21 23.14L25.56 20.08L25.56 14.57L20.66 11.9L14.05 16.04ZM2.62 12.81L2.8 12.92L7.22 15.33L11.64 12.92L11.82 12.81L7.22 10.18L2.62 12.81ZM1.85 18.5L6.49 21.03L6.49 16.59L1.85 14.06L1.85 18.5ZM1.85 40.63L6.49 43.16L6.49 38.73L1.85 36.19L1.85 40.63ZM7.95 43.16L12.59 40.63L12.59 36.19L7.95 38.73L7.95 43.16ZM19.46 44.92L19.46 43.6C19.46 43.56 19.46 43.52 19.47 43.48C19.48 43.46 19.48 43.44 19.48 43.41C19.5 43.35 19.52 43.29 19.55 43.24C19.56 43.22 19.58 43.21 19.59 43.19C19.61 43.15 19.64 43.12 19.67 43.09C19.68 43.07 19.71 43.06 19.72 43.04C19.75 43.02 19.78 42.99 19.82 42.97L19.82 42.97L19.82 42.97L25.56 39.69L25.56 33.86L20.24 30.96L14.05 35.32L14.05 41.06C14.05 41.14 14.03 41.22 14.01 41.29L19.46 44.92ZM20.92 49.27L25.56 51.8L25.56 47.36L20.92 44.83L20.92 49.27ZM31.66 49.27L31.66 44.83L27.02 47.36L27.02 51.8L31.66 49.27ZM33.12 44.92L38.57 41.29C38.54 41.22 38.53 41.14 38.53 41.06L38.53 35.32L32.34 30.96L27.02 33.86L27.02 39.69L32.75 42.97L32.75 42.97L32.76 42.97C32.79 42.99 32.82 43.02 32.85 43.04C32.87 43.06 32.89 43.07 32.91 43.09C32.93 43.12 32.96 43.15 32.98 43.19C32.99 43.21 33.01 43.22 33.02 43.24C33.05 43.29 33.08 43.35 33.09 43.41C33.1 43.44 33.1 43.46 33.1 43.48C33.11 43.52 33.11 43.56 33.12 43.6L33.12 44.92ZM50.73 40.63L50.73 36.19L46.09 38.73L46.09 43.16L50.73 40.63ZM50.73 18.5L50.73 14.06L46.09 16.59L46.09 21.03L50.73 18.5Z" />
			</g>
		</g>
	</g>
</svg>