<svg xmlns="http://www.w3.org/2000/svg" width="34" height="22" viewBox="0 0 34 22" fill="none" class="injected-svg" data-src="/static/media/account.2447e034.svg" xmlns:xlink="http://www.w3.org/1999/xlink">
<path d="M33 12C33.5523 12 34 11.5523 34 11C34 10.4477 33.5523 10 33 10V12ZM22 10C21.4477 10 21 10.4477 21 11C21 11.5523 21.4477 12 22 12V10ZM32 7C32 7.55228 32.4477 8 33 8C33.5523 8 34 7.55228 34 7H32ZM34 15C34 14.4477 33.5523 14 33 14C32.4477 14 32 14.4477 32 15H34ZM0 7C0 7.55228 0.447715 8 1 8C1.55228 8 2 7.55228 2 7H0ZM2 15C2 14.4477 1.55228 14 1 14C0.447715 14 0 14.4477 0 15H2ZM3 2H31V0H3V2ZM31 20H3V22H31V20ZM3 20C2.44772 20 2 19.5523 2 19H0C0 20.6569 1.34315 22 3 22V20ZM32 19C32 19.5523 31.5523 20 31 20V22C32.6569 22 34 20.6569 34 19H32ZM31 2C31.5523 2 32 2.44772 32 3H34C34 1.34315 32.6569 0 31 0V2ZM3 0C1.34315 0 0 1.34315 0 3H2C2 2.44772 2.44772 2 3 2V0ZM33 10H22V12H33V10ZM32 3V7H34V3H32ZM32 15V19H34V15H32ZM2 7V3H0V7H2ZM2 19V15H0V19H2Z" fill="gray"></path>
</svg>