<svg xmlns="http://www.w3.org/2000/svg" width="14" height="8" viewBox="0 0 14 8" fill="none" class="injected-svg" data-src="/static/media/transaction_arrow.13aa42f2.svg" xmlns:xlink="http://www.w3.org/1999/xlink">
<path d="M1 3.5C0.723858 3.5 0.5 3.72386 0.5 4C0.5 4.27614 0.723858 4.5 1 4.5V3.5ZM10.5274 0.656522C10.3377 0.455849 10.0213 0.446953 9.82058 0.636651C9.61991 0.826349 9.61102 1.14281 9.80071 1.34348L10.5274 0.656522ZM13 4L13.3633 4.34348C13.5456 4.15074 13.5456 3.84926 13.3633 3.65652L13 4ZM9.80071 6.65652C9.61102 6.85719 9.61991 7.17365 9.82058 7.36335C10.0213 7.55305 10.3377 7.54415 10.5274 7.34348L9.80071 6.65652ZM12.6367 3.65652L9.80071 6.65652L10.5274 7.34348L13.3633 4.34348L12.6367 3.65652ZM1 4.5H13V3.5H1V4.5ZM9.80071 1.34348L11.2187 2.84348L11.9454 2.15652L10.5274 0.656522L9.80071 1.34348ZM11.2187 2.84348L12.6367 4.34348L13.3633 3.65652L11.9454 2.15652L11.2187 2.84348Z" fill="#333333"></path>
</svg>