<svg xmlns="http://www.w3.org/2000/svg" width="34" height="22" viewBox="0 0 34 22" fill="none" class="injected-svg" data-src="/static/media/transaction.250a6325.svg" xmlns:xlink="http://www.w3.org/1999/xlink">
<path d="M8 9L7.29289 8.29289C7.0069 8.57889 6.92134 9.00901 7.07612 9.38268C7.2309 9.75636 7.59554 10 8 10V9ZM19 10C19.5523 10 20 9.55229 20 9C20 8.44772 19.5523 8 19 8V10ZM11.7071 6.70711C12.0976 6.31658 12.0976 5.68342 11.7071 5.29289C11.3166 4.90237 10.6834 4.90237 10.2929 5.29289L11.7071 6.70711ZM26 13L26.7071 13.7071C26.9931 13.4211 27.0787 12.991 26.9239 12.6173C26.7691 12.2436 26.4045 12 26 12V13ZM15 12C14.4477 12 14 12.4477 14 13C14 13.5523 14.4477 14 15 14V12ZM22.2929 15.2929C21.9024 15.6834 21.9024 16.3166 22.2929 16.7071C22.6834 17.0976 23.3166 17.0976 23.7071 16.7071L22.2929 15.2929ZM32 7C32 7.55228 32.4477 8 33 8C33.5523 8 34 7.55228 34 7H32ZM34 15C34 14.4477 33.5523 14 33 14C32.4477 14 32 14.4477 32 15H34ZM0 7C0 7.55228 0.447715 8 1 8C1.55228 8 2 7.55228 2 7H0ZM2 15C2 14.4477 1.55228 14 1 14C0.447715 14 0 14.4477 0 15H2ZM3 2H31V0H3V2ZM31 20H3V22H31V20ZM3 20C2.44772 20 2 19.5523 2 19H0C0 20.6569 1.34315 22 3 22V20ZM32 19C32 19.5523 31.5523 20 31 20V22C32.6569 22 34 20.6569 34 19H32ZM31 2C31.5523 2 32 2.44772 32 3H34C34 1.34315 32.6569 0 31 0V2ZM3 0C1.34315 0 0 1.34315 0 3H2C2 2.44772 2.44772 2 3 2V0ZM8 10H19V8H8V10ZM8.70711 9.70711L11.7071 6.70711L10.2929 5.29289L7.29289 8.29289L8.70711 9.70711ZM26 12H15V14H26V12ZM25.2929 12.2929L22.2929 15.2929L23.7071 16.7071L26.7071 13.7071L25.2929 12.2929ZM32 3V7H34V3H32ZM32 15V19H34V15H32ZM2 7V3H0V7H2ZM2 19V15H0V19H2Z" fill="gray"></path>
</svg>