<svg xmlns="http://www.w3.org/2000/svg" width="34" height="22" viewBox="0 0 34 22" fill="none" class="injected-svg" data-src="/static/media/transaction_roles_gradient.46ab7aff.svg" xmlns:xlink="http://www.w3.org/1999/xlink">
<path d="M32 7C32 7.55228 32.4477 8 33 8C33.5523 8 34 7.55228 34 7H32ZM34 15C34 14.4477 33.5523 14 33 14C32.4477 14 32 14.4477 32 15H34ZM0 7C0 7.55228 0.447715 8 1 8C1.55228 8 2 7.55228 2 7H0ZM2 15C2 14.4477 1.55228 14 1 14C0.447715 14 0 14.4477 0 15H2ZM23 16C23.5523 16 24 15.5523 24 15C24 14.4477 23.5523 14 23 14V16ZM23 12C23.5523 12 24 11.5523 24 11C24 10.4477 23.5523 10 23 10V12ZM24 12C23.4477 12 23 12.4477 23 13C23 13.5523 23.4477 14 24 14V12ZM26 14C26.5523 14 27 13.5523 27 13C27 12.4477 26.5523 12 26 12V14ZM27 14C26.4477 14 26 14.4477 26 15C26 15.5523 26.4477 16 27 16V14ZM27 10C26.4477 10 26 10.4477 26 11C26 11.5523 26.4477 12 27 12V10ZM3 2H31V0H3V2ZM31 20H3V22H31V20ZM3 20C2.44772 20 2 19.5523 2 19H0C0 20.6569 1.34315 22 3 22V20ZM32 19C32 19.5523 31.5523 20 31 20V22C32.6569 22 34 20.6569 34 19H32ZM31 2C31.5523 2 32 2.44772 32 3H34C34 1.34315 32.6569 0 31 0V2ZM3 0C1.34315 0 0 1.34315 0 3H2C2 2.44772 2.44772 2 3 2V0ZM32 3V7H34V3H32ZM32 15V19H34V15H32ZM2 7V3H0V7H2ZM2 19V15H0V19H2ZM33 4H1V6H33V4ZM23 14C22.4477 14 22 13.5523 22 13H20C20 14.6569 21.3431 16 23 16V14ZM22 13C22 12.4477 22.4477 12 23 12V10C21.3431 10 20 11.3431 20 13H22ZM24 14H26V12H24V14ZM27 16C28.6569 16 30 14.6569 30 13H28C28 13.5523 27.5523 14 27 14V16ZM30 13C30 11.3431 28.6569 10 27 10V12C27.5523 12 28 12.4477 28 13H30Z" fill="url(#paint0_linear-105-105)"></path>
<defs>
<linearGradient id="paint0_linear-105-105" x1="1" y1="11" x2="33" y2="11" gradientUnits="userSpaceOnUse">
<stop stop-color="#00B7F9"></stop>
<stop offset="0.480663" stop-color="#0042BA"></stop>
<stop offset="1" stop-color="#5B1EC0"></stop>
</linearGradient>
</defs>
</svg>