<svg xmlns="http://www.w3.org/2000/svg" width="22" height="18" viewBox="0 0 22 18" fill="none" class="injected-svg" data-src="/static/media/transaction_received.ee06ddf1.svg" xmlns:xlink="http://www.w3.org/1999/xlink">
<path d="M21.5999 11.4C21.5999 11.9522 21.1522 12.4 20.5999 12.4C20.0476 12.4 19.5999 11.9522 19.5999 11.4H21.5999ZM2.3999 11.4C2.3999 11.9522 1.95219 12.4 1.3999 12.4C0.847618 12.4 0.399902 11.9522 0.399902 11.4H2.3999ZM9.9999 8.99995C9.9999 8.44767 10.4476 7.99995 10.9999 7.99995C11.5522 7.99995 11.9999 8.44767 11.9999 8.99995H9.9999ZM10.9999 16.2L11.707 16.9071C11.5195 17.0946 11.2651 17.2 10.9999 17.2C10.7347 17.2 10.4803 17.0946 10.2928 16.9071L10.9999 16.2ZM13.2928 12.4928C13.6833 12.1023 14.3165 12.1023 14.707 12.4928C15.0975 12.8834 15.0975 13.5165 14.707 13.9071L13.2928 12.4928ZM7.2928 13.9071C6.90227 13.5165 6.90227 12.8834 7.2928 12.4928C7.68332 12.1023 8.31648 12.1023 8.70701 12.4928L7.2928 13.9071ZM19.5999 11.4C19.5999 6.6503 15.7495 2.79995 10.9999 2.79995V0.799951C16.8541 0.799951 21.5999 5.54573 21.5999 11.4H19.5999ZM10.9999 2.79995C6.25025 2.79995 2.3999 6.6503 2.3999 11.4H0.399902C0.399902 5.54573 5.14568 0.799951 10.9999 0.799951V2.79995ZM11.9999 8.99995V16.2H9.9999V8.99995H11.9999ZM14.707 13.9071L11.707 16.9071L10.2928 15.4928L13.2928 12.4928L14.707 13.9071ZM10.2928 16.9071L7.2928 13.9071L8.70701 12.4928L11.707 15.4928L10.2928 16.9071Z" fill="#00B7F9"></path>
</svg>